<svg xmlns="http://www.w3.org/2000/svg" viewBox="0 0 301.01 239.92"><defs><style>.cls-1{fill:#fff;fill-rule:evenodd;}</style></defs><title>资源 2</title><g id="图层_2" data-name="图层 2"><g id="图层_1-2" data-name="图层 1"><path id="形状_1" data-name="形状 1" class="cls-1" d="M40.68,60.17a8.6,8.6,0,1,0-8.6-8.6,8.6,8.6,0,0,0,8.6,8.6Zm54.68,4.66a8.6,8.6,0,1,0-8.6-8.6,8.6,8.6,0,0,0,8.6,8.6ZM265.7,60.17a8.6,8.6,0,1,0-8.6-8.6,8.6,8.6,0,0,0,8.6,8.6ZM211,64.83a8.6,8.6,0,1,0-8.6-8.6A8.6,8.6,0,0,0,211,64.83ZM293.47,87.9c-10.41-14.34-21.3-18.13-34.37-18.19S231.05,82.5,231.05,82.5s-6.57-8.57-19.86-9.63c-7.42-.59-15.24-.07-23.75,5.22s-17.1,17.34-17.1,17.34A19.69,19.69,0,0,0,164.73,84c-5.06-4.92-8.18-4.11-8.68-5.06s-.67-2.25-.61-4.74c.13-5,1.16-3.68,7-3.86s4.74-2.24,5-4.95a10.94,10.94,0,0,0-1.13-6.36c-.75-1.41-8.46-1-8.46-1,2-6.87,6-12.3,12.53-14.82s10-1,11.33-1.79.34-3.75-.08-4.81-4-8.52-10.37-8.21-10.49,5.33-10.49,5.33C162.48,5,150.5,0,150.5,0s-12,5-10.31,33.8c0,0-4.16-5-10.49-5.33s-9.95,7.16-10.37,8.21-1.45,4-.07,4.81,4.83-.73,11.32,1.79,10.5,7.95,12.53,14.82c0,0-7.71-.44-8.45,1a11.11,11.11,0,0,0-1.14,6.36c.3,2.71-.78,4.77,5,4.95s6.86-1.11,7,3.86c.06,2.49-.12,3.78-.61,4.74s-3.62.14-8.68,5.06a19.81,19.81,0,0,0-5.61,11.39s-8.58-12.06-17.1-17.34-16.33-5.81-23.75-5.22C76.52,73.93,70,82.5,70,82.5S55,69.66,41.9,69.71s-24,3.85-34.37,18.19c-8.29,11.42-9.39,33.87-5,50C11,169.08,38.28,186.83,46.1,194.29s12.41,9,8.9,15.67c-1.37,2.59.24,1.48,1,7.18s.09,20.73,2.76,22.55,35.58-7.85,91.72-7.85,89.05,9.67,91.72,7.85,2-16.84,2.76-22.55,2.39-4.59,1-7.18c-3.51-6.66,1.08-8.21,8.9-15.67s35.08-25.21,43.57-56.37C302.87,121.77,301.76,99.32,293.47,87.9Zm-143,14.33c6.22,0,11.26,16,11.26,35.69s-5,35.69-11.26,35.69-11.26-16-11.26-35.69,5-35.69,11.26-35.69ZM88.59,224.48a5.77,5.77,0,1,1,5.77-5.77,5.77,5.77,0,0,1-5.77,5.77ZM72,200.46c-3.78-1.33-36.68-36.7-43.78-46.49C18.51,140.66,15,125,17.45,111.7s11.1-25.29,23.31-25.07,21.53,2.66,21.53,13.09-5.11,21.52,7.1,50.15c12.56,29.44,26,48.59,26,48.59s-19.64,3.34-23.41,2ZM121.52,220a5.77,5.77,0,1,1,5.77-5.77,5.77,5.77,0,0,1-5.77,5.77Zm3.84-24.46c-6.18.35-15.35,1.42-17,1.06s-35.15-55.32-33.15-79.06,6.35-30.9,25.16-30c12.73.64,24.51,16,24.73,34.45s-1.59,25.35,3.74,41.77,15.75,31.12,15.75,31.12-9.24.06-19.27.62Zm25.14,23.18a5.77,5.77,0,1,1,5.77-5.77,5.77,5.77,0,0,1-5.77,5.77Zm29,1.28a5.77,5.77,0,1,1,5.77-5.77,5.77,5.77,0,0,1-5.77,5.77Zm13.12-23.4c-1.61.36-10.78-.71-17-1.06-10-.56-19.27-.62-19.27-.62s10.43-14.7,15.76-31.12,3.5-23.35,3.73-41.77,12-33.81,24.73-34.45c18.81-.94,23.16,6.21,25.16,30s-31.54,78.71-33.15,79.06Zm19.81,27.89a5.77,5.77,0,1,1,5.77-5.77,5.77,5.77,0,0,1-5.77,5.77ZM272.83,154c-7.1,9.79-40,45.16-43.78,46.49s-23.41-2-23.41-2,13.41-19.15,26-48.59c12.21-28.63,7.1-39.72,7.1-50.15S248,86.85,260.24,86.63s20.87,11.76,23.31,25.07-1.06,29-10.72,42.27Z"/></g></g></svg>